<?xml version="1.0" encoding="UTF-8" standalone="no"?>
<!-- Created with Inkscape (http://www.inkscape.org/) -->

<svg
   width="48"
   height="48"
   viewBox="0 0 12.7 12.7"
   version="1.1"
   id="svg1"
   inkscape:version="1.4.4 (dcaf3e7, 2026-05-05)"
   sodipodi:docname="dronesilloutte.svg"
   xmlns:inkscape="http://www.inkscape.org/namespaces/inkscape"
   xmlns:sodipodi="http://sodipodi.sourceforge.net/DTD/sodipodi-0.dtd"
   xmlns="http://www.w3.org/2000/svg"
   xmlns:svg="http://www.w3.org/2000/svg">
  <sodipodi:namedview
     id="namedview1"
     pagecolor="#ffffff"
     bordercolor="#666666"
     borderopacity="1.0"
     inkscape:showpageshadow="2"
     inkscape:pageopacity="0.0"
     inkscape:pagecheckerboard="0"
     inkscape:deskcolor="#d1d1d1"
     inkscape:document-units="mm"
     inkscape:zoom="5.8083614"
     inkscape:cx="21.262451"
     inkscape:cy="1.8077388"
     inkscape:window-width="1920"
     inkscape:window-height="1017"
     inkscape:window-x="1912"
     inkscape:window-y="-8"
     inkscape:window-maximized="1"
     inkscape:current-layer="layer1" />
  <defs
     id="defs1" />
  <g
     inkscape:label="Layer 1"
     inkscape:groupmode="layer"
     id="layer1">
    <path
       style="fill:#000000;stroke-width:0.309219"
       d="m 1.727507,9.9548069 c 0,-0.3120974 0.00953,-0.3231211 0.3004784,-0.3477101 C 2.266111,9.5869668 2.3415626,9.5392608 2.391586,9.3771712 2.426304,9.2646744 2.609128,8.6111843 2.7978628,7.9249696 L 3.1410177,6.6773068 h 0.7658972 c 0.7613123,0 0.7658977,-0.00124 0.7658977,-0.203438 0,-0.1569624 -0.068592,-0.2320963 -0.3002416,-0.3288879 C 4.2074381,6.0759849 4.0212689,5.9466326 3.9588615,5.8575344 3.8601566,5.7166143 3.7501938,5.6955379 3.1137066,5.6955379 H 2.3820195 V 6.189864 6.68419 L 1.7479606,6.660287 1.1139016,6.636384 1.0913716,5.3478147 c -0.0218,-1.246831 -0.01717,-1.2885724 0.1431742,-1.2885724 0.1214832,0 0.1657056,-0.053702 0.1657056,-0.201227 0,-0.1955777 -0.018946,-0.2018919 -0.67496565,-0.2249874 L 0.05031998,3.6092799 0.02515999,3.2615698 0,2.9138598 H 0.70012376 1.4002467 v -0.245442 c 0,-0.231117 0.018785,-0.245443 0.3218219,-0.245443 0.2902599,0 0.3243608,0.02208 0.3477096,0.224991 0.025668,0.223079 0.031649,0.225191 0.7053924,0.248825 l 0.6795048,0.02384 -0.024991,0.344327 -0.024991,0.3443273 -0.6749656,0.023748 c -0.6185349,0.021769 -0.674966,0.037805 -0.674966,0.1917402 0,0.097831 0.066732,0.1854291 0.1598,0.2097676 0.13072,0.034184 0.1642189,0.1258427 0.1840818,0.5036799 l 0.02428,0.461889 0.6705317,0.026562 c 0.6040734,0.023933 0.6851619,0.00909 0.8181407,-0.1496185 0.3191252,-0.3809078 0.4817435,-0.4087406 2.3881054,-0.4087406 1.8768817,0 2.1324461,0.037638 2.4333101,0.3583627 0.1551138,0.1653546 0.248508,0.1848663 0.8590474,0.1794766 l 0.6850121,-0.00606 0.02428,-0.461889 c 0.01986,-0.3778372 0.05336,-0.4694958 0.184082,-0.5036799 0.185812,-0.04859 0.214233,-0.2867971 0.0421,-0.3528523 -0.06474,-0.02483 -0.36847,-0.051296 -0.6749656,-0.058792 l -0.5572648,-0.013637 -0.024991,-0.344327 -0.024991,-0.344327 0.6795048,-0.02384 c 0.6737436,-0.02362 0.6797246,-0.02576 0.7053926,-0.248825 0.02335,-0.202925 0.05745,-0.224991 0.347709,-0.224991 0.303038,0 0.321822,0.01432 0.321822,0.245442 v 0.245443 H 11.999877 12.7 l -0.02516,0.34771 -0.02516,0.3477099 -0.674966,0.023748 c -0.65602,0.023099 -0.674966,0.029407 -0.674966,0.2249874 0,0.1466839 0.04435,0.201227 0.163628,0.201227 0.156811,0 0.163629,0.054543 0.163629,1.3090242 V 6.6772504 H 10.972496 10.317984 V 6.1863667 5.6954823 H 9.5862965 c -0.6364875,0 -0.7464506,0.021089 -0.8451552,0.1619965 -0.062407,0.089098 -0.2509428,0.21944 -0.4189678,0.289645 -0.2398233,0.1002054 -0.2999725,0.1665111 -0.2797879,0.3084331 0.024082,0.1693219 0.072854,0.1822658 0.7691146,0.2041337 l 0.7434029,0.023346 0.2680309,0.9584228 c 0.567693,2.0299517 0.546325,1.9810983 0.8665,1.9810983 0.275696,0 0.283062,0.0085 0.283062,0.3272552 V 10.277068 H 10.317984 9.6634713 l -0.0013,-0.3477098 C 9.6614601,9.7381189 9.5197622,9.1030366 9.3473109,8.5180662 L 9.0337631,7.4544843 8.5304831,7.4301183 8.0272029,7.4057523 V 7.6550969 7.9044445 H 6.3500151 4.6728273 V 7.6590023 c 0,-0.2452505 -3.71e-4,-0.2454422 -0.4874201,-0.2454422 H 3.6979875 L 3.5308951,7.9862576 C 3.4389941,8.301243 3.2901698,8.8114351 3.2001746,9.1200228 3.1101786,9.4286074 3.0365463,9.8151801 3.0365463,9.979069 V 10.27705 H 2.3820342 1.7275218 Z"
       id="path86" />
  </g>
</svg>
