<?xml version="1.0" encoding="UTF-8" standalone="no"?>
<!-- Created with Inkscape (http://www.inkscape.org/) -->

<svg
   width="256"
   height="256"
   viewBox="0 0 67.733333 67.733333"
   version="1.1"
   id="svg1"
   sodipodi:docname="HitMarker.svg"
   xmlns:inkscape="http://www.inkscape.org/namespaces/inkscape"
   xmlns:sodipodi="http://sodipodi.sourceforge.net/DTD/sodipodi-0.dtd"
   xmlns="http://www.w3.org/2000/svg"
   xmlns:svg="http://www.w3.org/2000/svg">
  <sodipodi:namedview
     id="namedview1"
     pagecolor="#ffffff"
     bordercolor="#666666"
     borderopacity="1.0"
     inkscape:showpageshadow="2"
     inkscape:pageopacity="0.0"
     inkscape:pagecheckerboard="0"
     inkscape:deskcolor="#d1d1d1"
     inkscape:document-units="mm"
     showgrid="false"
     inkscape:zoom="2.8284271"
     inkscape:cx="68.942911"
     inkscape:cy="145.48722"
     inkscape:window-width="1920"
     inkscape:window-height="1040"
     inkscape:window-maximized="1"
     inkscape:current-layer="layer1" />
  <defs
     id="defs1" />
  <g
     inkscape:label="Layer 1"
     inkscape:groupmode="layer"
     id="layer1">
    <path
       id="path17"
       style="fill:#000000;stroke-width:0.243848"
       d="M 34.154504 0 C 34.116023 0.039499564 33.943932 4.1626925 33.878552 6.6140666 C 33.842112 7.9802578 33.80582 10.323965 33.79742 11.822017 L 33.781917 14.545882 L 33.93643 14.714347 C 34.123073 14.918425 34.119632 14.918374 34.303333 14.741219 L 34.45061 14.599109 L 34.449577 11.619963 C 34.449057 9.9814071 34.421352 7.6551742 34.388082 6.450769 C 34.306749 3.5067708 34.178924 -0.025078266 34.154504 0 z M 32.322058 6.6140666 L 32.27865 7.2352173 C 32.254674 7.5767653 32.171929 8.7389168 32.095199 9.8174886 L 31.955672 11.778092 L 31.492135 12.799736 L 31.028597 13.821379 L 30.989323 19.035014 L 30.950049 24.248649 L 31.506087 24.909591 C 31.811824 25.273232 32.518726 26.097489 33.077568 26.741003 L 34.094043 27.910958 L 34.440275 27.529069 C 34.630851 27.318892 35.344998 26.498269 36.027258 25.705408 L 37.268009 24.263635 L 37.239587 19.03398 L 37.211165 13.804842 L 36.755379 12.791467 C 36.246535 11.660292 36.299497 11.951139 36.137329 9.4252645 C 36.001241 7.3055661 35.968619 6.7658791 35.939408 6.7360229 L 35.938892 6.7360229 L 35.938375 6.7355062 L 35.937858 6.7349894 L 35.937341 6.7349894 L 35.936825 6.7349894 L 35.936308 6.7349894 L 35.935791 6.7349894 L 35.935274 6.7355062 L 35.934757 6.7355062 C 35.924882 6.744828 35.914462 6.8057138 35.900134 6.8755493 C 35.870624 7.0193591 35.84663 10.902573 35.847424 15.50448 L 35.848975 23.871411 L 34.975126 24.876518 L 34.101794 25.881108 L 33.792253 25.530225 C 33.622022 25.337034 33.223137 24.874413 32.906002 24.50238 L 32.329293 23.825936 L 32.380452 17.932756 C 32.436592 11.454056 32.432096 8.348394 32.365466 7.3008464 L 32.322058 6.6140666 z M 23.911719 22.563997 L 24.038843 22.726261 C 24.445617 23.243802 28.668203 27.821869 29.752706 28.921232 C 30.2581 29.433555 30.713994 29.852441 30.765564 29.852441 C 30.923184 29.852441 31.012061 29.707996 31.012061 29.451432 C 31.012061 29.443446 31.012214 29.435808 31.012061 29.428178 C 31.06447 29.41833 31.119417 29.397559 31.160889 29.369267 C 31.242079 29.313867 31.295764 29.206774 31.295764 29.100549 C 31.295764 28.879466 30.910668 28.509278 26.685193 24.672396 C 25.857949 23.92123 25.465673 23.574788 25.427905 23.580473 L 25.427389 23.580473 L 25.426872 23.580473 L 25.426355 23.58099 L 25.425838 23.581506 L 25.425321 23.582023 C 25.425232 23.582383 25.42492 23.58339 25.424805 23.58409 C 25.428905 23.61873 25.606303 23.826885 25.927616 24.189221 C 26.248426 24.55099 26.583537 24.924747 26.922388 25.298197 C 25.571763 24.037116 24.327804 22.895463 24.038843 22.665283 L 23.911719 22.563997 z M 43.362728 23.185665 C 43.353859 23.187415 43.323495 23.209322 43.270227 23.24871 C 43.200179 23.300504 42.912981 23.564595 42.632023 23.835754 C 42.351065 24.106912 41.778231 24.652206 41.358716 25.047567 C 41.168952 25.226401 40.846752 25.537305 40.468848 25.905396 C 39.418352 26.783791 38.083774 27.926214 37.638013 28.339355 C 37.296716 28.655676 37.193399 28.775684 37.196696 28.876274 L 37.196179 28.876274 C 37.19665 28.890644 37.199947 28.904558 37.204447 28.918648 C 37.246239 29.051637 37.310478 29.149905 37.380147 29.192533 C 37.380141 29.193935 37.380147 29.195255 37.380147 29.196667 C 37.380147 29.329853 37.399182 29.457951 37.422522 29.481921 C 37.445869 29.505891 37.541095 29.525846 37.634395 29.525846 C 37.77232 29.525846 38.00036 29.309095 38.853959 28.36571 C 40.347508 26.715056 42.802029 23.906652 43.295032 23.284367 C 43.339508 23.22822 43.363582 23.197015 43.365312 23.188249 L 43.365312 23.187732 L 43.365312 23.187215 L 43.365312 23.186698 L 43.365312 23.186182 L 43.364795 23.186182 L 43.364795 23.185665 L 43.364278 23.185665 L 43.363761 23.185665 L 43.363245 23.185665 L 43.362728 23.185665 z M 45.500582 23.579956 L 45.338318 23.70708 C 44.820778 24.113854 40.24271 28.33644 39.143347 29.420943 C 38.631024 29.926337 38.212138 30.382231 38.212138 30.433801 C 38.212138 30.591421 38.356583 30.680298 38.613147 30.680298 C 38.621133 30.680298 38.629289 30.680452 38.636918 30.680298 C 38.646765 30.732707 38.667532 30.787654 38.695829 30.829126 C 38.751231 30.91032 38.858322 30.964001 38.964547 30.964001 C 39.18563 30.964001 39.555818 30.578905 43.3927 26.35343 C 44.143866 25.526186 44.490308 25.133911 44.484623 25.096143 L 44.484623 25.095626 L 44.484623 25.095109 L 44.484106 25.094592 L 44.48359 25.094076 L 44.483073 25.093559 C 44.482713 25.09347 44.481706 25.093157 44.481006 25.093042 L 44.480489 25.093042 C 44.445846 25.097176 44.237694 25.274541 43.875358 25.595854 C 43.51359 25.916663 43.139831 26.252292 42.766382 26.591142 C 44.027463 25.240518 45.169117 23.996041 45.399296 23.70708 L 45.500582 23.579956 z M 23.517428 24.699784 L 23.517428 24.700301 L 23.516911 24.700301 L 23.516911 24.700818 L 23.516911 24.701335 L 23.516911 24.701851 L 23.517428 24.701851 C 23.519228 24.710751 23.540576 24.741082 23.579956 24.794352 C 23.631746 24.864402 23.895841 25.151598 24.167 25.432556 C 24.438158 25.713514 24.983452 26.286348 25.378813 26.705863 C 25.557612 26.89559 25.868647 27.217924 26.236641 27.595732 C 27.115067 28.646269 28.257941 29.981283 28.671118 30.427083 C 29.032627 30.817137 29.13764 30.896089 29.250411 30.860649 C 29.383431 30.818844 29.481167 30.754119 29.523779 30.684432 C 29.525168 30.684438 29.526514 30.684432 29.527913 30.684432 C 29.661099 30.684432 29.789197 30.665914 29.813167 30.642574 C 29.837137 30.619224 29.857609 30.524001 29.857609 30.430701 C 29.857609 30.292776 29.640858 30.064736 28.697473 29.211137 C 27.046819 27.717588 24.238415 25.263067 23.61613 24.770064 C 23.55998 24.725584 23.528265 24.701514 23.519495 24.699784 L 23.518978 24.699784 L 23.518461 24.699784 L 23.517944 24.699784 L 23.517428 24.699784 z M 43.81593 30.618803 L 43.155505 31.174841 C 42.791864 31.480578 41.96709 32.18748 41.323576 32.746322 L 40.153621 33.76228 L 40.53551 34.108512 C 40.745687 34.299088 41.566827 35.013236 42.359688 35.695496 L 43.800944 36.936247 L 49.030599 36.908341 L 54.259737 36.879919 L 55.273112 36.424133 C 56.404287 35.915289 56.113441 35.968251 58.639315 35.806083 C 60.759014 35.669995 61.2987 35.637373 61.328556 35.608162 L 61.328556 35.607646 L 61.329073 35.607129 L 61.32959 35.606612 L 61.32959 35.606095 L 61.32959 35.605579 L 61.32959 35.605062 L 61.32959 35.604545 L 61.329073 35.604028 L 61.329073 35.603512 C 61.319773 35.593612 61.258863 35.583218 61.18903 35.568888 C 61.045221 35.539378 57.162006 35.515388 52.560099 35.516178 L 44.193168 35.517729 L 43.188578 34.64388 L 42.183472 33.770549 L 42.534355 33.461007 C 42.727546 33.290776 43.190166 32.891891 43.562199 32.574756 L 44.238643 31.998047 L 50.131824 32.049207 C 56.610524 32.105347 59.716186 32.10085 60.763733 32.03422 L 61.450513 31.990812 L 60.829362 31.947404 C 60.487814 31.923424 59.325663 31.840683 58.247091 31.763953 L 56.286487 31.624426 L 55.264844 31.160889 L 54.243201 30.697351 L 49.029565 30.658077 L 43.81593 30.618803 z M 24.595398 30.79657 L 19.365743 30.824992 L 14.136605 30.853414 L 13.12323 31.3092 C 11.992055 31.818044 12.282902 31.765082 9.7570272 31.92725 C 7.6373288 32.063338 7.0976418 32.09596 7.0677856 32.125171 L 7.0677856 32.125688 L 7.0672689 32.126204 L 7.0667521 32.126721 L 7.0667521 32.127238 L 7.0667521 32.127755 L 7.0667521 32.128271 L 7.0667521 32.128788 L 7.0672689 32.129305 L 7.0672689 32.129822 C 7.0765889 32.139722 7.1374769 32.150115 7.207312 32.164445 C 7.3511218 32.193955 11.234336 32.217945 15.836243 32.217155 L 24.203174 32.215605 L 25.20828 33.089453 L 26.21287 33.962785 L 25.861987 34.272327 C 25.668796 34.442558 25.206176 34.841442 24.834143 35.158577 L 24.157699 35.735286 L 18.264518 35.684127 C 11.785818 35.627987 8.6801566 35.632483 7.632609 35.699113 L 6.9458293 35.742521 L 7.56698 35.786446 C 7.908528 35.810426 9.0706796 35.893167 10.149251 35.969897 L 12.109855 36.109424 L 13.131498 36.572961 L 14.153141 37.036499 L 19.366777 37.075256 L 24.580412 37.11453 L 25.241353 36.558492 C 25.604994 36.252755 26.429252 35.545854 27.072766 34.987012 L 28.242721 33.970536 L 27.860832 33.624304 C 27.650655 33.433728 26.830031 32.719581 26.03717 32.037321 L 24.595398 30.79657 z M 53.518697 33.450671 L 53.350232 33.605184 C 53.241816 33.704334 53.190899 33.750035 53.193652 33.798454 C 53.196052 33.841174 53.240322 33.885974 53.32336 33.972087 L 53.46547 34.119364 L 56.444617 34.118331 C 58.083172 34.117811 60.409404 34.090126 61.61381 34.056836 C 64.557808 33.975506 68.089657 33.847678 68.064579 33.823258 C 68.025079 33.784778 63.901887 33.612686 61.450513 33.547306 C 60.084322 33.510866 57.740614 33.474574 56.242562 33.466174 L 53.518697 33.450671 z M 14.930355 33.613969 L 11.951208 33.615002 C 10.312652 33.615522 7.9864202 33.643217 6.782015 33.676497 C 3.8382523 33.757821 0.30725551 33.88564 0.3317627 33.910075 C 0.3712623 33.948555 4.4944552 34.120647 6.9458293 34.186027 C 8.3120205 34.222467 10.655728 34.258759 12.15378 34.267159 L 14.877645 34.282662 L 15.04611 34.128149 C 15.250188 33.941506 15.249622 33.944948 15.072465 33.761247 L 14.930355 33.613969 z M 29.431795 36.769332 C 29.210712 36.769332 28.840525 37.154428 25.003642 41.379903 C 24.252476 42.207147 23.906034 42.599423 23.911719 42.637191 L 23.911719 42.637708 L 23.911719 42.638224 L 23.912236 42.638741 L 23.912752 42.639258 L 23.913269 42.639775 C 23.913509 42.639834 23.914821 42.640175 23.915336 42.640291 L 23.915853 42.640291 C 23.950493 42.636191 24.158648 42.458793 24.520984 42.13748 C 24.882749 41.816673 25.256514 41.481039 25.62996 41.142192 C 24.368884 42.492812 23.227225 43.736776 22.997046 44.025736 L 22.89576 44.152861 L 23.058024 44.025736 C 23.575565 43.618962 28.153632 39.396376 29.252995 38.311873 C 29.765318 37.806479 30.184204 37.350585 30.184204 37.299015 C 30.184204 37.141395 30.039759 37.052519 29.783195 37.052519 C 29.775208 37.052519 29.767054 37.052882 29.759424 37.053035 C 29.749575 37.000626 29.728805 36.945679 29.700513 36.904207 C 29.645113 36.823017 29.53802 36.769332 29.431795 36.769332 z M 39.188306 36.864933 C 39.173936 36.865404 39.160027 36.868255 39.145931 36.872685 C 39.012911 36.914486 38.915175 36.979214 38.872563 37.048901 C 38.871171 37.048896 38.869314 37.048901 38.867912 37.048901 C 38.734726 37.048901 38.606628 37.067429 38.582658 37.090759 C 38.558688 37.114109 38.538733 37.209333 38.538733 37.302633 C 38.538733 37.440558 38.755484 37.668597 39.698869 38.522196 C 41.349523 40.015746 44.157927 42.470266 44.780212 42.963269 C 44.836362 43.007749 44.868077 43.031819 44.876847 43.033549 L 44.877364 43.033549 L 44.877881 43.033549 L 44.878398 43.033549 L 44.878914 43.033549 L 44.878914 43.033032 L 44.879431 43.033032 L 44.879431 43.032515 L 44.879431 43.031999 L 44.879431 43.031482 L 44.879431 43.030965 C 44.877631 43.022065 44.855259 42.992251 44.815869 42.938981 C 44.764079 42.868931 44.499984 42.581735 44.228825 42.300777 C 43.957667 42.019819 43.412374 41.446985 43.017013 41.02747 C 42.838222 40.837753 42.527671 40.515384 42.159701 40.137602 C 41.281269 39.087056 40.138408 37.752058 39.725224 37.30625 C 39.408903 36.964953 39.288896 36.861636 39.188306 36.864933 z M 37.630778 37.880892 C 37.473158 37.880892 37.384281 38.025337 37.384281 38.281901 C 37.384281 38.289876 37.384128 38.297536 37.384281 38.305155 C 37.331872 38.315003 37.277441 38.335775 37.23597 38.364067 C 37.15478 38.419467 37.101095 38.526559 37.101095 38.632784 C 37.101095 38.853867 37.486191 39.224055 41.711666 43.060937 C 42.53891 43.812103 42.931185 44.158546 42.968953 44.152861 L 42.96947 44.152861 L 42.969987 44.152861 L 42.970504 44.152344 L 42.971021 44.151827 L 42.971537 44.15131 C 42.971596 44.15107 42.971938 44.149743 42.972054 44.149243 L 42.972054 44.148726 C 42.967954 44.114086 42.790555 43.905931 42.469242 43.543595 C 42.1485 43.181903 41.812732 42.808507 41.473954 42.435136 C 42.824495 43.696137 44.068553 44.837883 44.357499 45.06805 L 44.484623 45.169336 L 44.357499 45.007072 C 43.950725 44.489532 39.728139 39.911464 38.643636 38.812101 C 38.138242 38.299778 37.682348 37.880892 37.630778 37.880892 z M 30.761947 38.207487 C 30.624022 38.207487 30.395982 38.424238 29.542383 39.367623 C 28.048833 41.018277 25.594313 43.826681 25.10131 44.448966 C 25.05683 44.505116 25.03276 44.536315 25.03103 44.545085 L 25.03103 44.545601 L 25.03103 44.546118 L 25.03103 44.546635 L 25.03103 44.547152 L 25.031547 44.547152 L 25.031547 44.547668 L 25.032064 44.547668 L 25.032581 44.547668 L 25.033097 44.547668 L 25.033614 44.547668 C 25.042514 44.545868 25.072845 44.524013 25.126115 44.484623 C 25.196165 44.432833 25.483361 44.168738 25.764319 43.897579 C 26.045277 43.626421 26.618111 43.081128 27.037626 42.685767 C 27.227349 42.506971 27.549696 42.195924 27.927494 41.827938 C 28.978035 40.94951 30.313043 39.806641 30.758846 39.393461 C 31.1489 39.031952 31.227851 38.926939 31.192411 38.814168 C 31.15061 38.681149 31.085883 38.583412 31.016195 38.5408 C 31.0162 38.53941 31.016195 38.538066 31.016195 38.536666 C 31.016195 38.40348 30.99715 38.275382 30.97382 38.251412 C 30.95047 38.227442 30.855247 38.207487 30.761947 38.207487 z M 34.302299 39.822375 L 33.956067 40.204264 C 33.765491 40.414441 33.051344 41.235065 32.369084 42.027926 L 31.128333 43.469698 L 31.156755 48.699353 L 31.185177 53.928491 L 31.640963 54.941866 C 32.149807 56.073041 32.096845 55.782195 32.259013 58.308069 C 32.395101 60.427768 32.427723 60.967454 32.456934 60.99731 L 32.45745 60.99731 L 32.457967 60.997827 L 32.458484 60.998344 L 32.459001 60.998344 L 32.459517 60.998344 L 32.460034 60.998344 L 32.460551 60.998344 L 32.461068 60.997827 L 32.461584 60.997827 C 32.471484 60.988527 32.481878 60.927617 32.496208 60.857784 C 32.525718 60.713975 32.549708 56.83076 32.548918 52.228853 L 32.547367 43.861922 L 33.421216 42.856816 L 34.294548 41.852226 L 34.604089 42.203109 C 34.77432 42.3963 35.173205 42.85892 35.49034 43.230953 L 36.067049 43.907397 L 36.015889 49.800578 C 35.959749 56.279278 35.964246 59.38494 36.030876 60.432487 L 36.074284 61.119267 L 36.117692 60.498116 C 36.141672 60.156568 36.224413 58.994417 36.301143 57.915845 L 36.44067 55.955241 L 36.904207 54.933598 L 37.367745 53.911955 L 37.407019 48.698319 L 37.446293 43.484684 L 36.890255 42.823743 C 36.584518 42.460102 35.877616 41.635844 35.318774 40.99233 L 34.302299 39.822375 z M 34.266642 52.862406 C 34.223919 52.864836 34.179119 52.909072 34.093009 52.992114 L 33.945732 53.134224 L 33.946765 56.113371 C 33.947285 57.751926 33.97498 60.078158 34.00826 61.282564 C 34.08959 64.226562 34.217418 67.758411 34.241838 67.733333 C 34.280318 67.693833 34.45241 63.570641 34.51779 61.119267 C 34.55423 59.753076 34.590522 57.409368 34.598922 55.911316 L 34.614425 53.187451 L 34.459912 53.018986 C 34.360758 52.91057 34.315061 52.859653 34.266642 52.862406 z " />
  </g>
</svg>
