<?xml version="1.0" encoding="UTF-8" standalone="no"?>
<!-- Created with Inkscape (http://www.inkscape.org/) -->

<svg
   width="128"
   height="128"
   viewBox="0 0 33.866666 33.866666"
   version="1.1"
   id="svg1"
   sodipodi:docname="HitMarker_128.svg"
   inkscape:version="1.4 (86a8ad7, 2024-10-11)"
   xmlns:inkscape="http://www.inkscape.org/namespaces/inkscape"
   xmlns:sodipodi="http://sodipodi.sourceforge.net/DTD/sodipodi-0.dtd"
   xmlns="http://www.w3.org/2000/svg"
   xmlns:svg="http://www.w3.org/2000/svg">
  <sodipodi:namedview
     id="namedview1"
     pagecolor="#ffffff"
     bordercolor="#666666"
     borderopacity="1.0"
     inkscape:showpageshadow="2"
     inkscape:pageopacity="0.0"
     inkscape:pagecheckerboard="0"
     inkscape:deskcolor="#d1d1d1"
     inkscape:document-units="mm"
     showgrid="false"
     inkscape:zoom="2.8284271"
     inkscape:cx="68.766135"
     inkscape:cy="145.13367"
     inkscape:window-width="1920"
     inkscape:window-height="1017"
     inkscape:window-maximized="1"
     inkscape:current-layer="layer1"
     inkscape:window-x="1912"
     inkscape:window-y="-8" />
  <defs
     id="defs1" />
  <g
     inkscape:label="Layer 1"
     inkscape:groupmode="layer"
     id="layer1">
    <path
       id="path17"
       style="fill:#ffffff;stroke-width:0.121924"
       d="M 16.911502,6.6396606e-5 C 16.89226,0.01981609 16.806216,2.0814039 16.773526,3.3070857 16.755306,3.9901784 16.737156,5.162027 16.732956,5.91105 l -0.0078,1.3619267 0.07726,0.084232 c 0.09332,0.102038 0.0916,0.102014 0.183452,0.01344 l 0.07364,-0.071054 -4.99e-4,-1.4895665 C 17.058778,4.9907487 17.044925,3.8276373 17.02829,3.2254373 16.987624,1.7534444 16.923712,-0.0124727 16.911502,6.6396606e-5 Z M 15.995276,3.3070857 l -0.0217,0.310574 c -0.01198,0.170774 -0.05336,0.7518466 -0.09173,1.2911302 l -0.06976,0.9802977 -0.231769,0.5108198 -0.23177,0.5108192 -0.01964,2.6068065 -0.01964,2.6068059 0.27802,0.33047 c 0.152869,0.18182 0.506321,0.593946 0.785744,0.915702 l 0.50824,0.584975 0.173116,-0.190944 c 0.09529,-0.105088 0.452363,-0.515397 0.793495,-0.911826 L 18.46826,12.131832 18.45406,9.5170161 18.43986,6.9024582 18.211955,6.3957728 C 17.957521,5.8301878 17.984002,5.9756105 17.902918,4.7126786 17.834874,3.6528339 17.818563,3.3829916 17.803957,3.3680634 h -2.58e-4 l -2.58e-4,-2.582e-4 -2.59e-4,-2.584e-4 h -2.58e-4 -2.58e-4 -2.59e-4 -2.58e-4 l -2.59e-4,2.584e-4 h -2.58e-4 c -0.0049,0.00466 -0.01014,0.035104 -0.0173,0.070022 -0.01476,0.071904 -0.02675,2.0135035 -0.02636,4.3144471 l 7.99e-4,4.1834467 -0.436927,0.502552 -0.436666,0.502293 -0.154772,-0.17544 c -0.08512,-0.0966 -0.284565,-0.327906 -0.443133,-0.513922 l -0.288355,-0.33822 0.02558,-2.9465777 c 0.02807,-3.2393361 0.02582,-4.7921605 -0.0075,-5.3159322 z m -4.205187,7.9749313 0.06356,0.08113 c 0.203387,0.25877 2.314689,2.547793 2.856943,3.097472 0.252698,0.256161 0.480646,0.465603 0.506431,0.465603 0.07881,0 0.123248,-0.07222 0.123248,-0.200504 0,-0.004 7.6e-5,-0.0078 0,-0.01162 0.02621,-0.0049 0.05368,-0.0153 0.07441,-0.02945 0.0406,-0.0277 0.06744,-0.08125 0.06744,-0.134358 0,-0.11054 -0.19255,-0.295634 -2.305295,-2.214067 -0.413618,-0.375588 -0.609757,-0.548808 -0.628641,-0.545966 h -2.58e-4 -2.58e-4 l -2.59e-4,2.59e-4 -2.58e-4,2.58e-4 -2.59e-4,2.58e-4 c -4.4e-5,1.8e-4 -2.01e-4,7e-4 -2.58e-4,0.0011 0.002,0.01732 0.09075,0.121396 0.251406,0.302565 0.160406,0.180884 0.327962,0.367761 0.497388,0.554485 -0.675315,-0.630538 -1.297297,-1.201362 -1.441778,-1.316451 z m 9.725543,0.310833 c -0.0044,9e-4 -0.0196,0.01182 -0.04626,0.03152 -0.03502,0.0259 -0.17862,0.157942 -0.319104,0.29352 -0.14048,0.135578 -0.426898,0.408225 -0.636654,0.605904 -0.09488,0.08942 -0.255984,0.244868 -0.444938,0.428913 -0.52525,0.439196 -1.192541,1.010405 -1.415423,1.216974 -0.170648,0.15816 -0.222307,0.218164 -0.220659,0.268459 h -2.51e-4 c 2.36e-4,0.0072 0.0019,0.01414 0.0041,0.02119 0.02089,0.06649 0.05302,0.115628 0.08785,0.136942 -3e-6,7e-4 0,0.0014 0,0.0021 0,0.06659 0.0095,0.130641 0.02119,0.142625 0.01168,0.01198 0.05929,0.02196 0.105938,0.02196 0.06896,0 0.182984,-0.108375 0.609785,-0.580065 0.746778,-0.825323 1.974042,-2.22952 2.220546,-2.540661 0.02224,-0.02807 0.03428,-0.04367 0.03514,-0.04806 v -2.58e-4 -2.59e-4 -2.58e-4 -2.58e-4 h -2.6e-4 v -2.59e-4 h -2.58e-4 -2.58e-4 -2.58e-4 z m 1.06893,0.197144 -0.08114,0.06356 c -0.25877,0.203386 -2.547813,2.31467 -3.097497,2.85692 -0.256163,0.252695 -0.465606,0.480641 -0.465606,0.506426 0,0.07881 0.07222,0.123248 0.200505,0.123248 0.004,0 0.0081,7.7e-5 0.01188,0 0.0049,0.02621 0.0153,0.05368 0.02946,0.07441 0.0277,0.04059 0.08125,0.06744 0.13436,0.06744 0.110542,0 0.295636,-0.192548 2.214084,-2.305276 0.375582,-0.41362 0.548802,-0.609756 0.54596,-0.62864 v -2.6e-4 -2.58e-4 l -2.58e-4,-2.59e-4 -2.58e-4,-2.58e-4 -2.58e-4,-2.58e-4 c -1.8e-4,-4.5e-5 -7e-4,-2.01e-4 -10e-4,-2.59e-4 h -2.58e-4 c -0.0174,0.0021 -0.1214,0.09075 -0.302566,0.251405 -0.18088,0.160404 -0.367764,0.328218 -0.55449,0.497642 0.630544,-0.675309 1.201372,-1.297545 1.316462,-1.442025 z m -10.991619,0.559912 v 2.59e-4 h -2.59e-4 v 2.58e-4 2.59e-4 2.58e-4 h 2.59e-4 c 8.99e-4,0.0045 0.01158,0.01962 0.03126,0.04625 0.0259,0.03502 0.157944,0.178621 0.293523,0.3191 0.13558,0.140478 0.408227,0.426894 0.605909,0.636651 0.0894,0.09486 0.244918,0.256029 0.428916,0.444933 0.439215,0.525266 1.010654,1.19277 1.217243,1.415669 0.180756,0.195026 0.233262,0.234502 0.289647,0.216782 0.06651,-0.0209 0.115379,-0.05326 0.136685,-0.08811 6.99e-4,3e-6 0.0013,0 0.002,0 0.06659,0 0.130642,-0.0093 0.142628,-0.02093 0.01198,-0.01168 0.02222,-0.05929 0.02222,-0.105936 0,-0.06896 -0.108376,-0.182982 -0.58007,-0.609779 -0.825331,-0.746772 -2.229538,-1.974027 -2.540683,-2.220527 -0.02807,-0.02224 -0.04393,-0.03427 -0.04832,-0.03514 h -2.58e-4 -2.59e-4 -2.58e-4 z m 10.149291,2.959497 -0.330214,0.278018 c -0.18182,0.152868 -0.59421,0.506317 -0.915968,0.785737 l -0.58498,0.507977 0.190946,0.173116 c 0.10508,0.09529 0.51566,0.45236 0.912092,0.793488 l 0.72063,0.620373 2.614839,-0.01396 2.614578,-0.01422 0.50669,-0.227892 c 0.56559,-0.254421 0.420166,-0.22794 1.683108,-0.309024 1.059855,-0.06804 1.329699,-0.08435 1.344627,-0.09896 v -2.58e-4 l 2.58e-4,-2.58e-4 2.58e-4,-2.59e-4 v -2.58e-4 -2.58e-4 -2.59e-4 -2.58e-4 l -2.58e-4,-2.59e-4 v -2.58e-4 c -0.0046,-0.005 -0.0351,-0.01014 -0.07002,-0.01732 -0.0719,-0.01476 -2.013521,-0.02675 -4.314483,-0.02635 l -4.183483,8e-4 -0.502296,-0.436899 -0.502554,-0.436663 0.17544,-0.15477 c 0.0966,-0.08512 0.327906,-0.284557 0.513924,-0.443124 l 0.338222,-0.288353 2.946603,0.02558 c 3.239362,0.02807 4.792201,0.02582 5.315977,-0.0075 l 0.34339,-0.0217 -0.310576,-0.0217 c -0.17078,-0.012 -0.751853,-0.05336 -1.291141,-0.09173 l -0.980306,-0.06976 -0.510824,-0.231767 -0.510824,-0.231768 -2.606826,-0.01963 z m -9.610304,0.08888 -2.614838,0.01422 -2.6145797,0.0142 -0.5066895,0.227892 c -0.5655891,0.254421 -0.4201653,0.22794 -1.6831083,0.309024 -1.0598534,0.06804 -1.3296981,0.08435 -1.3446263,0.09896 v 2.58e-4 l -2.582e-4,2.58e-4 -2.586e-4,2.59e-4 v 2.58e-4 2.59e-4 2.58e-4 2.58e-4 l 2.586e-4,2.59e-4 v 2.58e-4 c 0.00466,0.005 0.035104,0.01014 0.070022,0.01732 0.071906,0.01476 2.013521,0.02675 4.3144834,0.02635 l 4.1834816,-8e-4 0.502555,0.436912 0.502298,0.436664 -0.175442,0.15477 c -0.0966,0.08512 -0.327907,0.284557 -0.513924,0.443123 l -0.338225,0.288354 -2.9466013,-0.02558 c -3.2393632,-0.02807 -4.7922007,-0.02582 -5.3159766,0.0075 l -0.3433913,0.0217 0.3105767,0.02196 c 0.170774,0.01198 0.7518527,0.05336 1.2911416,0.09173 l 0.9803054,0.06976 0.5108233,0.231768 0.5108239,0.231768 2.6068279,0.01938 2.6068284,0.01964 0.330472,-0.278018 c 0.181822,-0.15288 0.593951,-0.506328 0.91571,-0.785748 l 0.584979,-0.508236 -0.190944,-0.173116 c -0.10509,-0.09529 -0.515403,-0.452358 -0.911835,-0.793487 z m 14.461707,1.327045 -0.08424,0.07726 c -0.0542,0.04958 -0.07966,0.07243 -0.0783,0.09663 0.0012,0.02136 0.02334,0.04376 0.06486,0.08682 l 0.07106,0.07364 1.489578,-5e-4 c 0.819282,-2.6e-4 1.982403,-0.0141 2.584609,-0.03075 1.472004,-0.04066 3.237934,-0.104577 3.225396,-0.116787 -0.0198,-0.01924 -2.081354,-0.105286 -3.307046,-0.137976 -0.683098,-0.01822 -1.854957,-0.03636 -2.603985,-0.04056 z m -19.294248,0.08165 -1.4895787,5e-4 C 4.9905285,16.80774 3.8274075,16.82158 3.2252024,16.83823 1.7533152,16.878889 -0.01219022,16.942801 6.3431063e-5,16.955018 0.01981332,16.974258 2.081418,17.060303 3.3071098,17.092993 c 0.6830983,0.01822 1.8549572,0.03636 2.6039863,0.04056 l 1.3619376,0.0077 0.084234,-0.07726 c 0.10204,-0.09332 0.101758,-0.0916 0.01318,-0.18345 z m 7.250749,1.577674 c -0.110542,0 -0.295636,0.192548 -2.214086,2.305277 -0.375584,0.41362 -0.548805,0.609756 -0.545963,0.62864 v 2.6e-4 2.58e-4 l 2.59e-4,2.58e-4 2.58e-4,2.58e-4 2.58e-4,2.58e-4 c 1.2e-4,3e-5 7.99e-4,2e-4 0.001,2.58e-4 h 2.58e-4 c 0.01732,-0.002 0.121398,-0.09074 0.302567,-0.251404 0.180882,-0.1604 0.367767,-0.328218 0.55449,-0.497642 -0.63054,0.675308 -1.201372,1.297287 -1.316462,1.441765 l -0.05064,0.06356 0.08113,-0.06356 c 0.258772,-0.203386 2.547814,-2.314669 3.097498,-2.856918 0.256163,-0.252696 0.465606,-0.480642 0.465606,-0.506427 0,-0.07881 -0.07222,-0.123248 -0.200504,-0.123248 -0.004,0 -0.0081,1.81e-4 -0.01188,2.58e-4 -0.0049,-0.0262 -0.0153,-0.05368 -0.02946,-0.07441 -0.0277,-0.04059 -0.08125,-0.06744 -0.134361,-0.06744 z m 4.878274,0.0478 c -0.0072,2.36e-4 -0.01414,0.0017 -0.02119,0.0039 -0.06651,0.0209 -0.115378,0.05326 -0.136684,0.08811 -6.99e-4,-2e-6 -0.0016,0 -0.0023,0 -0.06659,0 -0.130642,0.0093 -0.142628,0.02093 -0.01198,0.01168 -0.02196,0.05929 -0.02196,0.105936 0,0.06896 0.108376,0.182982 0.580071,0.609779 0.825331,0.746772 2.229537,1.974028 2.540681,2.220528 0.02808,0.02224 0.04392,0.03428 0.04832,0.03514 h 2.58e-4 2.58e-4 2.58e-4 2.58e-4 v -2.6e-4 h 2.6e-4 v -2.58e-4 -2.58e-4 -2.58e-4 -2.58e-4 c -9e-4,-0.0044 -0.012,-0.0194 -0.03178,-0.04598 -0.0259,-0.03502 -0.15794,-0.17862 -0.293524,-0.319102 -0.13558,-0.14048 -0.408226,-0.426894 -0.605908,-0.63665 -0.0894,-0.09486 -0.244672,-0.256042 -0.428658,-0.444932 -0.43927,-0.525281 -1.010702,-1.192777 -1.217295,-1.41568 -0.158161,-0.170648 -0.218165,-0.222306 -0.26846,-0.220658 z m -0.778767,0.507977 c -0.07881,0 -0.12325,0.07222 -0.12325,0.200504 0,0.004 -7.6e-5,0.0078 0,0.01162 -0.02621,0.0049 -0.05342,0.0153 -0.07416,0.02945 -0.0406,0.0277 -0.06744,0.08125 -0.06744,0.134358 0,0.11054 0.192548,0.295634 2.305297,2.214068 0.413624,0.375579 0.609762,0.548801 0.628646,0.545959 h 2.58e-4 2.58e-4 l 2.58e-4,-2.6e-4 2.6e-4,-2.58e-4 2.58e-4,-2.58e-4 c 2.8e-5,-1.2e-4 2e-4,-8e-4 2.56e-4,-0.001 v -2.58e-4 c -0.002,-0.0174 -0.09074,-0.1214 -0.251408,-0.302566 -0.16036,-0.180839 -0.328256,-0.367541 -0.497644,-0.554225 0.675272,0.630497 1.297304,1.201367 1.441776,1.316451 l 0.06356,0.05064 -0.06356,-0.08114 c -0.203378,-0.258752 -2.31468,-2.547776 -2.856934,-3.097456 -0.252697,-0.25616 -0.480646,-0.465602 -0.506431,-0.465602 z m -3.434428,0.163298 c -0.06896,0 -0.182984,0.108374 -0.609784,0.580066 -0.746778,0.825322 -1.974044,2.229517 -2.220546,2.540659 -0.02224,0.02808 -0.03427,0.04368 -0.03514,0.04806 v 2.58e-4 2.58e-4 2.6e-4 2.58e-4 h 2.58e-4 v 2.58e-4 h 2.58e-4 2.59e-4 2.58e-4 2.59e-4 c 0.0044,-9e-4 0.01962,-0.0118 0.04625,-0.03152 0.03502,-0.0259 0.178624,-0.15794 0.319103,-0.29352 0.14048,-0.13558 0.426898,-0.408223 0.636656,-0.605903 0.09486,-0.0894 0.256036,-0.24492 0.444936,-0.428912 0.525272,-0.439212 1.192779,-1.010645 1.415681,-1.217234 0.195028,-0.180754 0.234504,-0.23326 0.216783,-0.289646 -0.0209,-0.06651 -0.05326,-0.115377 -0.08811,-0.136683 3e-6,-7e-4 0,-0.0014 0,-0.0021 0,-0.06659 -0.0095,-0.130642 -0.02119,-0.142626 -0.01168,-0.01198 -0.05929,-0.02197 -0.105938,-0.02197 z m 1.770182,0.80744 -0.173116,0.190944 c -0.09529,0.10508 -0.452363,0.515398 -0.793494,0.911826 l -0.620378,0.720883 0.0142,2.614817 0.0142,2.614557 0.227893,0.506686 c 0.254424,0.565586 0.227943,0.420162 0.309027,1.683094 0.06804,1.059845 0.08436,1.329687 0.09896,1.344615 h 2.58e-4 l 2.59e-4,2.58e-4 2.58e-4,2.58e-4 h 2.59e-4 2.58e-4 2.58e-4 2.59e-4 l 2.58e-4,-2.58e-4 h 2.58e-4 c 0.0049,-0.0046 0.01014,-0.0351 0.01732,-0.07002 0.01476,-0.0719 0.02675,-2.013503 0.02636,-4.314448 l -7.99e-4,-4.183447 0.436927,-0.502552 0.436667,-0.502291 0.154772,0.175439 c 0.08512,0.0966 0.284558,0.327904 0.443127,0.51392 l 0.288355,0.33822 -0.02558,2.946579 c -0.02807,3.239337 -0.02582,4.792161 0.0075,5.315932 l 0.0217,0.343388 0.0217,-0.310574 c 0.01198,-0.17078 0.05336,-0.751845 0.09173,-1.291129 l 0.06976,-0.980298 0.231769,-0.51082 0.23177,-0.51082 0.01964,-2.606807 0.01964,-2.606805 -0.27802,-0.33047 c -0.152844,-0.18182 -0.506297,-0.593945 -0.785719,-0.915701 z m -0.01782,6.519988 c -0.02136,0.0012 -0.04376,0.02334 -0.08682,0.06486 l -0.07364,0.07106 4.99e-4,1.489567 c 2.6e-4,0.819274 0.0141,1.982386 0.03075,2.584585 0.04067,1.471994 0.104578,3.237911 0.116788,3.225371 0.01924,-0.0198 0.105286,-2.081337 0.137976,-3.307019 0.01822,-0.683091 0.03637,-1.854941 0.04057,-2.603965 l 0.0077,-1.361925 -0.07726,-0.08424 c -0.04958,-0.0542 -0.07243,-0.07966 -0.09663,-0.07828 z" />
  </g>
</svg>
