<?xml version="1.0" encoding="UTF-8" standalone="no"?>
<!-- Created with Inkscape (http://www.inkscape.org/) -->

<svg
   width="64"
   height="64"
   viewBox="0 0 16.933333 16.933333"
   version="1.1"
   id="svg1"
   sodipodi:docname="HitMarker_64x64.svg"
   xmlns:inkscape="http://www.inkscape.org/namespaces/inkscape"
   xmlns:sodipodi="http://sodipodi.sourceforge.net/DTD/sodipodi-0.dtd"
   xmlns="http://www.w3.org/2000/svg"
   xmlns:svg="http://www.w3.org/2000/svg">
  <sodipodi:namedview
     id="namedview1"
     pagecolor="#ffffff"
     bordercolor="#666666"
     borderopacity="1.0"
     inkscape:showpageshadow="2"
     inkscape:pageopacity="0.0"
     inkscape:pagecheckerboard="0"
     inkscape:deskcolor="#d1d1d1"
     inkscape:document-units="mm"
     showgrid="false"
     inkscape:zoom="2.8284271"
     inkscape:cx="68.942911"
     inkscape:cy="145.48722"
     inkscape:window-width="1920"
     inkscape:window-height="1040"
     inkscape:window-maximized="1"
     inkscape:current-layer="layer1" />
  <defs
     id="defs1" />
  <g
     inkscape:label="Layer 1"
     inkscape:groupmode="layer"
     id="layer1">
    <path
       id="path17"
       style="fill:#000000;stroke-width:0.0609619"
       d="M 8.4557494,3.3198274e-5 C 8.4461285,0.00990805 8.4031064,1.0407023 8.3867612,1.6535434 8.3776521,1.9950899 8.368578,2.5810144 8.3664786,2.955526 l -0.00388,0.6809636 0.038628,0.042116 c 0.046661,0.051019 0.045801,0.051007 0.091726,0.00672 l 0.03682,-0.035527 -2.497e-4,-0.7447835 C 8.5293874,2.4953752 8.5224611,1.9138193 8.5141436,1.6127192 8.4938103,0.87672248 8.4618544,-0.00623635 8.4557494,3.3198274e-5 Z M 7.9976363,1.6535434 7.9867847,1.8088305 c -0.00599,0.085387 -0.02668,0.3759234 -0.045863,0.6455653 L 7.9060397,2.9445448 7.7901553,3.1999548 7.67427,3.4553645 7.66445,4.7587682 7.65463,6.0621718 7.7936403,6.2274067 c 0.076434,0.09091 0.2531604,0.2969733 0.3928717,0.4578512 l 0.2541197,0.2924876 0.086558,-0.095472 C 8.5748347,6.8297296 8.7533714,6.6245746 8.9239372,6.4263602 L 9.2341261,6.0659183 9.2270261,4.7585097 9.2199261,3.4512303 9.1059738,3.1978875 C 8.9787587,2.9150949 8.9919994,2.9878063 8.9514571,2.3563401 8.9174352,1.8264176 8.9092797,1.6914964 8.901977,1.6840323 H 8.9018479 L 8.9017186,1.6839032 8.9015893,1.683774 h -1.291e-4 -1.29e-4 -1.293e-4 -1.293e-4 l -1.291e-4,1.292e-4 h -1.293e-4 c -0.00247,0.00233 -0.00507,0.017552 -0.00865,0.035011 -0.00738,0.035952 -0.013375,1.0067521 -0.013178,2.1572243 L 8.8793857,5.9678627 8.6609226,6.2191385 8.4425892,6.470285 8.3652032,6.3825646 C 8.3226404,6.334267 8.222919,6.2186122 8.143635,6.1256043 L 7.9994573,5.956494 8.012246,4.4832047 C 8.0262803,2.8635361 8.025157,2.0871236 8.008499,1.8252377 Z m -2.1025929,3.9874671 0.031781,0.040566 c 0.1016937,0.1293848 1.1573444,1.273897 1.4284714,1.5487367 0.1263486,0.1280803 0.2403228,0.2328014 0.2532151,0.2328014 0.039405,0 0.061624,-0.036111 0.061624,-0.1002519 0,-0.002 3.82e-5,-0.00391 0,-0.00581 0.013103,-0.00245 0.026839,-0.00765 0.037207,-0.014727 0.020298,-0.01385 0.033719,-0.040623 0.033719,-0.067179 0,-0.05527 -0.096275,-0.1478171 -1.1526473,-1.1070339 C 6.3816029,5.9803187 6.2835333,5.8937085 6.2740914,5.8951297 h -1.29e-4 -1.293e-4 l -1.293e-4,1.293e-4 -1.291e-4,1.29e-4 -1.293e-4,1.292e-4 c -2.22e-5,9e-5 -1.004e-4,3.5e-4 -1.291e-4,5.25e-4 0.00102,0.00866 0.045375,0.060698 0.1257032,0.1512822 0.080203,0.090442 0.163981,0.1838808 0.248694,0.2772429 C 6.310056,6.0092983 5.999065,5.7238862 5.9268246,5.6663414 Z m 4.8627706,0.1554164 c -0.0022,4.5e-4 -0.0098,0.00591 -0.02313,0.01576 -0.01751,0.012948 -0.08931,0.078971 -0.159552,0.1467604 -0.07024,0.067789 -0.213449,0.2041122 -0.318327,0.3029521 -0.04744,0.044708 -0.127992,0.122434 -0.222469,0.2144564 C 9.7717114,6.6959536 9.4380658,6.9815582 9.3266249,7.0848431 9.2413009,7.163923 9.2154711,7.1939249 9.2162953,7.2190723 H 9.21617 c 1.179e-4,0.00359 9.486e-4,0.00707 0.00207,0.010593 0.010447,0.033247 0.026508,0.057814 0.043925,0.068471 -1.5e-6,3.5e-4 0,6.75e-4 0,0.00103 0,0.033296 0.00476,0.065321 0.010594,0.071313 0.00584,0.00599 0.029643,0.010982 0.052969,0.010982 0.034482,0 0.091492,-0.054188 0.3048922,-0.2900328 0.3733888,-0.4126619 0.9870208,-1.1147602 1.1102728,-1.2703308 0.01112,-0.014037 0.01714,-0.021837 0.01757,-0.02403 v -1.293e-4 -1.292e-4 -1.293e-4 -1.29e-4 h -1.3e-4 v -1.292e-4 h -1.29e-4 -1.29e-4 -1.29e-4 z m 0.534465,0.098572 -0.04057,0.031781 C 11.122324,6.0284732 9.9778024,7.0841156 9.7029607,7.3552403 9.5748793,7.4815883 9.4701575,7.5955613 9.4701575,7.6084538 c 0,0.039405 0.036111,0.061624 0.1002526,0.061624 0.002,0 0.00404,3.85e-5 0.00594,0 0.00247,0.013103 0.00765,0.026839 0.014728,0.037207 0.01385,0.020297 0.040623,0.033719 0.06718,0.033719 0.055271,0 0.1478183,-0.096274 1.1070419,-1.1526383 C 10.953093,6.3815553 11.039703,6.283487 11.038282,6.274045 V 6.2739153 6.273786 l -1.29e-4,-1.292e-4 -1.29e-4,-1.29e-4 -1.29e-4,-1.293e-4 c -9e-5,-2.22e-5 -3.5e-4,-1.005e-4 -5.25e-4,-1.292e-4 h -1.29e-4 c -0.0087,0.00103 -0.0607,0.045375 -0.151283,0.1257025 -0.09044,0.080202 -0.183882,0.1641088 -0.277245,0.248821 0.315272,-0.3376547 0.600686,-0.6487727 0.658231,-0.7210127 z M 5.7964703,6.1749551 v 1.293e-4 H 5.796341 v 1.292e-4 1.293e-4 1.29e-4 h 1.293e-4 c 4.494e-4,0.00223 0.00579,0.00981 0.015632,0.023125 0.012948,0.017512 0.078972,0.089311 0.1467616,0.1595504 0.06779,0.070239 0.2041137,0.2134471 0.3029546,0.3183255 0.0447,0.047432 0.1224587,0.1280147 0.2144579,0.2224664 0.2196074,0.2626332 0.5053266,0.5963854 0.6086213,0.707835 0.090378,0.097513 0.116631,0.117251 0.1448237,0.108391 0.033255,-0.010452 0.057689,-0.026632 0.068342,-0.044054 3.495e-4,1.5e-6 6.74e-4,0 0.00102,0 0.033297,0 0.065321,-0.00463 0.071314,-0.010465 0.00599,-0.00584 0.011111,-0.029643 0.011111,-0.052968 0,-0.034481 -0.054188,-0.091491 -0.2900349,-0.3048898 -0.412665,-0.3733858 -1.1147688,-0.9870136 -1.270341,-1.1102639 -0.014037,-0.01112 -0.021965,-0.017137 -0.024159,-0.01757 h -1.293e-4 -1.291e-4 -1.293e-4 z m 5.0746447,1.479749 -0.165107,0.139009 c -0.09091,0.076434 -0.297105,0.2531587 -0.457984,0.3928687 l -0.29249,0.2539885 0.095473,0.086558 c 0.05254,0.047644 0.25783,0.2261801 0.456046,0.3967444 l 0.360315,0.3101865 1.307419,-0.00698 1.307289,-0.00711 0.253345,-0.1139461 c 0.282795,-0.1272105 0.210083,-0.11397 0.841554,-0.1545119 0.529927,-0.034022 0.664849,-0.042177 0.672313,-0.04948 v -1.29e-4 l 1.29e-4,-1.293e-4 1.29e-4,-1.292e-4 v -1.293e-4 -1.29e-4 -1.292e-4 -1.293e-4 l -1.29e-4,-1.292e-4 v -1.29e-4 c -0.0023,-0.00248 -0.01755,-0.00507 -0.03501,-0.00866 -0.03595,-0.00738 -1.00676,-0.013375 -2.157241,-0.013177 l -2.091741,4e-4 L 10.714277,8.6609822 10.463,8.4426503 10.55072,8.3652651 c 0.0483,-0.042558 0.163953,-0.1422785 0.256962,-0.2215619 l 0.169111,-0.1441767 1.473301,0.01279 c 1.619681,0.014035 2.3961,0.01291 2.657988,-0.00375 l 0.171695,-0.010852 -0.155288,-0.010852 c -0.08539,-0.006 -0.375926,-0.02668 -0.64557,-0.045863 L 13.988766,7.9061199 13.733354,7.7902361 13.477942,7.674352 12.174529,7.6645346 Z m -4.8051511,0.044442 -1.3074188,0.00711 -1.3072896,0.0071 -0.2533447,0.1139461 c -0.2827945,0.1272105 -0.2100826,0.11397 -0.841554,0.1545119 -0.5299266,0.034022 -0.6648489,0.042177 -0.672313,0.04948 v 1.293e-4 l -1.291e-4,1.29e-4 -1.293e-4,1.292e-4 v 1.293e-4 1.292e-4 1.29e-4 1.293e-4 l 1.293e-4,1.292e-4 v 1.293e-4 c 0.00233,0.00248 0.017552,0.00507 0.035011,0.00866 0.035953,0.00738 1.0067603,0.013375 2.1572413,0.013177 l 2.0917405,-4e-4 L 6.219185,8.27235 6.4703339,8.4906821 6.3826129,8.5680673 C 6.3343149,8.6106249 6.2186593,8.7103455 6.1256508,8.7896289 L 5.9565386,8.9338056 4.483238,8.9210157 c -1.6196813,-0.014035 -2.3960999,-0.01291 -2.6579878,0.00375 l -0.1716956,0.010852 0.1552883,0.01098 c 0.085387,0.00599 0.3759263,0.02668 0.6455707,0.045863 l 0.4901526,0.034882 0.2554116,0.1158838 0.2554119,0.115884 1.3034137,0.00969 1.3034138,0.00982 0.1652359,-0.1390089 c 0.090911,-0.07644 0.2969759,-0.253164 0.4578553,-0.392874 L 6.9777979,8.4926196 6.8823257,8.4060619 C 6.8297809,8.3584181 6.6246242,8.1798821 6.4264081,8.0093177 Z m 7.2308521,0.6635226 -0.04212,0.038628 c -0.0271,0.024788 -0.03983,0.036213 -0.03915,0.048317 5.99e-4,0.01068 0.01167,0.02188 0.03243,0.043408 l 0.03553,0.036819 0.744789,-2.5e-4 c 0.409641,-1.3e-4 0.991201,-0.00705 1.292304,-0.015375 0.736002,-0.020332 1.618967,-0.052289 1.612698,-0.058394 -0.0099,-0.00962 -1.040677,-0.052643 -1.653523,-0.068988 -0.341549,-0.00911 -0.927478,-0.018182 -1.301992,-0.020282 z m -9.6471222,0.040824 -0.7447892,2.5e-4 c -0.4096408,1.3e-4 -0.9912012,0.00705 -1.2923037,0.015375 C 0.87665746,8.4394475 -0.00609511,8.4714032 3.171551e-5,8.4775119 0.00990666,8.4871319 1.0407088,8.5301547 1.6535546,8.5464996 c 0.3415491,0.00911 0.9274784,0.018182 1.3019929,0.020282 l 0.6809687,0.00387 0.042117,-0.038628 c 0.05102,-0.04666 0.050879,-0.0458 0.00659,-0.091725 z m 3.6253738,0.7888377 c -0.055271,0 -0.1478178,0.096274 -1.1070425,1.1526386 -0.1877922,0.20681 -0.2744029,0.304878 -0.2729817,0.31432 v 1.3e-4 1.29e-4 l 1.293e-4,1.29e-4 1.291e-4,1.29e-4 1.29e-4,1.29e-4 c 6.02e-5,1.5e-5 3.994e-4,10e-5 5.243e-4,1.29e-4 h 1.29e-4 c 0.00866,-10e-4 0.060699,-0.04537 0.1512835,-0.125702 0.090441,-0.0802 0.1838832,-0.164109 0.2772449,-0.248821 -0.3152702,0.337654 -0.6006859,0.648644 -0.6582309,0.720883 l -0.025322,0.03178 0.040566,-0.03178 C 5.8110113,10.904731 6.9555323,9.8490888 7.2303741,9.5779641 7.3584555,9.4516161 7.4631772,9.337643 7.4631772,9.3247506 c 0,-0.039405 -0.036111,-0.061624 -0.1002523,-0.061624 -0.002,0 -0.00404,9.08e-5 -0.00594,1.29e-4 -0.00247,-0.013102 -0.00765,-0.026839 -0.014728,-0.037207 -0.01385,-0.020297 -0.040623,-0.033719 -0.06718,-0.033719 z m 2.4391368,0.0239 c -0.00359,1.177e-4 -0.00707,8.25e-4 -0.010594,0.00195 -0.033255,0.01045 -0.057689,0.026632 -0.068342,0.044054 -3.495e-4,-1.3e-6 -8.238e-4,0 -0.00117,0 -0.033297,0 -0.065321,0.00463 -0.071314,0.010465 -0.00599,0.00584 -0.010981,0.029643 -0.010981,0.052968 0,0.034481 0.054188,0.091491 0.2900351,0.3048896 0.4126655,0.373386 1.1147685,0.987014 1.2703405,1.110264 0.01404,0.01112 0.02196,0.01714 0.02416,0.01757 h 1.29e-4 1.29e-4 1.29e-4 1.29e-4 v -1.3e-4 h 1.3e-4 v -1.29e-4 -1.29e-4 -1.29e-4 -1.29e-4 c -4.5e-4,-0.0022 -0.006,-0.0097 -0.01589,-0.02299 -0.01295,-0.01751 -0.07897,-0.08931 -0.146762,-0.159551 -0.06779,-0.07024 -0.204113,-0.213447 -0.302954,-0.318325 -0.0447,-0.04743 -0.122336,-0.128021 -0.214329,-0.222466 C 10.237435,9.7717723 9.9517191,9.4380242 9.8484227,9.3265726 9.7693422,9.2412487 9.7393403,9.2154195 9.7141926,9.2162438 Z M 9.324821,9.470219 c -0.039405,0 -0.061625,0.036111 -0.061625,0.1002519 0,0.002 -3.82e-5,0.00391 0,0.00581 -0.013103,0.00245 -0.02671,0.00765 -0.037078,0.014727 -0.020298,0.01385 -0.033719,0.040623 -0.033719,0.067179 0,0.05527 0.096274,0.1478172 1.152648,1.1070341 0.206812,0.18779 0.304881,0.274401 0.314323,0.27298 h 1.29e-4 1.29e-4 l 1.29e-4,-1.3e-4 1.3e-4,-1.29e-4 1.29e-4,-1.29e-4 c 1.4e-5,-6e-5 10e-5,-4e-4 1.28e-4,-5.25e-4 v -1.29e-4 c -9.99e-4,-0.0087 -0.04537,-0.0607 -0.125704,-0.151283 -0.08018,-0.09042 -0.164128,-0.183771 -0.248822,-0.277113 0.337636,0.315249 0.648652,0.600684 0.720888,0.658226 l 0.03178,0.02532 -0.03178,-0.04057 C 10.904814,11.122363 9.8491631,9.9778503 9.5780364,9.7030106 9.4516875,9.5749304 9.3377135,9.4702093 9.324821,9.4702093 Z M 7.6076069,9.551868 c -0.034481,0 -0.091492,0.054187 -0.304892,0.2900328 C 6.929326,10.254562 6.3156934,10.95666 6.1924422,11.112231 c -0.011121,0.01404 -0.017137,0.02184 -0.017569,0.02403 v 1.29e-4 1.29e-4 1.3e-4 1.29e-4 h 1.29e-4 v 1.29e-4 h 1.293e-4 1.293e-4 1.291e-4 1.293e-4 c 0.00222,-4.5e-4 0.00981,-0.0059 0.023126,-0.01576 0.017512,-0.01295 0.089312,-0.07897 0.1595515,-0.14676 0.07024,-0.06779 0.2134489,-0.204112 0.3183282,-0.302952 0.047431,-0.0447 0.1280177,-0.12246 0.2224679,-0.214456 0.262636,-0.219606 0.5963892,-0.5053226 0.7078403,-0.6086172 0.097514,-0.090377 0.1172521,-0.11663 0.1083917,-0.1448227 -0.01045,-0.033255 -0.026632,-0.057689 -0.044054,-0.068342 1.3e-6,-3.5e-4 0,-6.75e-4 0,-0.00103 0,-0.033296 -0.00476,-0.065321 -0.010594,-0.071313 -0.00584,-0.00599 -0.029644,-0.010983 -0.052969,-0.010983 z M 8.492698,9.9555879 8.40614,10.05106 C 8.358496,10.1036 8.1799586,10.308759 8.0093928,10.506973 l -0.3101889,0.360442 0.0071,1.307409 0.0071,1.307279 0.1139467,0.253343 c 0.1272119,0.282793 0.1139714,0.210081 0.1545135,0.841547 0.034022,0.529923 0.042178,0.664844 0.04948,0.672308 h 1.29e-4 l 1.293e-4,1.29e-4 1.291e-4,1.29e-4 h 1.293e-4 1.291e-4 1.293e-4 1.293e-4 l 1.29e-4,-1.29e-4 h 1.291e-4 c 0.00247,-0.0023 0.00507,-0.01755 0.00866,-0.03501 0.00738,-0.03595 0.013375,-1.006752 0.013178,-2.157225 l -3.994e-4,-2.091724 0.2184631,-0.251276 0.2183334,-0.251146 0.077386,0.08772 c 0.042558,0.0483 0.1422792,0.163952 0.2215637,0.25696 l 0.1441775,0.16911 -0.012789,1.47329 c -0.014034,1.619669 -0.012911,2.396081 0.00375,2.657967 l 0.010852,0.171694 0.010851,-0.155287 c 0.00599,-0.08539 0.02668,-0.375923 0.045863,-0.645565 l 0.034882,-0.490149 0.1158846,-0.25541 0.1158848,-0.25541 0.00982,-1.303404 0.00982,-1.303403 -0.13901,-0.165235 C 9.0632552,10.615017 8.886529,10.408954 8.7468177,10.248076 Z m -0.00891,3.2599951 c -0.010682,6e-4 -0.02188,0.01167 -0.043408,0.03243 l -0.03682,0.03553 2.496e-4,0.744784 c 1.298e-4,0.409637 0.00705,0.991193 0.015375,1.292293 0.020333,0.735997 0.052289,1.618956 0.058394,1.612686 0.00962,-0.0099 0.052643,-1.040669 0.068988,-1.65351 0.00911,-0.341546 0.018183,-0.927471 0.020283,-1.301983 l 0.00387,-0.680963 -0.038629,-0.04212 c -0.024788,-0.0271 -0.036213,-0.03983 -0.048317,-0.03914 z" />
  </g>
</svg>
